<svg xmlns="http://www.w3.org/2000/svg" viewBox="0 0 150.8 46.63" width="150px" height="46px" class="ml-3 wordmark">
                    <defs>
                        <style>
                            .cls-1 {
                                fill: #fff;
                            }
                        </style>
                    </defs>
                    <title>wordmark</title>
                    <g id="Layer_2" data-name="Layer 2">
                        <g id="Layer_1-2" data-name="Layer 1">
                            <path class="cls-1" d="M30.82,29.42l-.14-.06a1.54,1.54,0,0,0-.71-.19,3.92,3.92,0,0,1-.76-.12,15.59,15.59,0,0,1-1.64-.46c-.72-.22-1.74-.6-3-1.1-1-.56-1.85-1.06-2.59-1.5s-1.45-.91-2.14-1.39S18.39,23.55,17.61,23l-2.77-2.16c-.72-.72-1.31-1.33-1.77-1.82a5.34,5.34,0,0,1-1-1.54c.83-.19,1.83-.43,3-.73,1.35-.35,2.7-.76,4-1.22A32,32,0,0,0,22.81,14a8,8,0,0,0,2.47-1.7,3.39,3.39,0,0,0,1.24-2.44,3.58,3.58,0,0,0-1.64-2.88,17.3,17.3,0,0,0-5.23-2.51A52.12,52.12,0,0,0,9.91,2.56l-2-.14C7,2.35,6.14,2.3,5.23,2.27s-1.8-.06-2.67-.08a17.45,17.45,0,0,0-2.2.08l-.29,0,0,.3C0,3.29,0,3.69.3,3.9A6.42,6.42,0,0,0,1,4.34L1,4.4h.11c1.54,0,2.93.07,4.16.12l2,.07c.11.9.22,1.75.3,2.56l.3,2.74c.1.92.2,1.87.3,2.84s.2,1.84.35,2.83c-.37.12-.71.21-1,.29a1.59,1.59,0,0,0-1,.49l-.17.23.18.23c.43.53.77.93,1,1.18l.66.67c.19.19.39.41.59.65s.47.58.81,1c0,.08,0,.14.05.19v0h0v0c.2,2.88.45,5.55.76,7.93s.54,4.68.67,6.83l0,.41.4-.06a2.34,2.34,0,0,1,.89.14,2.39,2.39,0,0,0,.66.09,2.65,2.65,0,0,0,1-.21l.33-.13-.12-.33c-.09-.28-.2-.77-.33-1.43s-.26-1.47-.39-2.36l-.42-2.81c-.15-1-.29-1.94-.42-2.86s-.25-1.76-.37-2.5c0-.32-.1-.61-.14-.87l.32.22c.33.24.73.51,1.19.82s1,.68,1.51,1.1a41.53,41.53,0,0,0,3.71,2.61,29.91,29.91,0,0,0,3,1.65,24.78,24.78,0,0,0,2.36,1c.66.23,1.26.42,1.75.55a7.09,7.09,0,0,0,1.17.18,10.26,10.26,0,0,0,2.91-.05,1,1,0,0,0,.68-.41.62.62,0,0,0,0-.5Zm-8.49-18.1a23.2,23.2,0,0,1-3.42,1.56c-1.34.5-2.78,1-4.27,1.42-1.31.39-2.46.68-3.45.88-.27-2.11-.47-4-.59-5.75S10.37,6.29,10.25,5c1.32.19,2.7.46,4.11.81,1.57.39,3.06.82,4.41,1.28A18.33,18.33,0,0,1,22.13,8.5c1,.56,1.3,1,1.39,1.26v.41C23.53,10.31,23.44,10.7,22.33,11.32Z"></path>
                            <path class="cls-1" d="M31.47,16.12a2.15,2.15,0,0,1,.42,0H32a1.23,1.23,0,0,0,1-.63,2.32,2.32,0,0,1,.63-.68,1.62,1.62,0,0,0,.29-1.33,1.1,1.1,0,0,0-.41-.79.81.81,0,0,0-.7-.1,3.36,3.36,0,0,0-1.41,1,4.48,4.48,0,0,0-.68,1.18l0,.1,0,.1C30.75,15.38,30.89,16.18,31.47,16.12Z"></path>
                            <path class="cls-1" d="M34.53,32.92c-.13-.58-.26-1.4-.39-2.43-.16-2-.27-4-.34-5.92s-.18-3.65-.35-5.23l0-.27L33.17,19a1.34,1.34,0,0,0-.87,0,1.29,1.29,0,0,0-.52.33,2.28,2.28,0,0,0-.33.41.44.44,0,0,1-.17.16l-.22.11,0,.25c.06.79.14,1.86.22,3.2s.16,2.74.25,4.17.16,2.76.24,4,.16,2.11.23,2.64l0,.18.15.09a4.73,4.73,0,0,0,.9.45,2,2,0,0,0,.72.12,4.05,4.05,0,0,0,.72-.08l.35-.06-.05-.35A17.15,17.15,0,0,0,34.53,32.92Z"></path>
                            <path class="cls-1" d="M65.8,28.48h-.37l-.11.13a18.78,18.78,0,0,1-2.71,2.73,1.73,1.73,0,0,1-1.92.33c-.06,0-.24-.16-.37-.79a9.3,9.3,0,0,1-.14-2c0-.8.07-1.67.17-2.58s.21-1.8.35-2.63.25-1.56.36-2.18.19-1,.23-1.24l.06-.38L61,19.79a6.55,6.55,0,0,0-3.12.24,9.26,9.26,0,0,0-2.81,1.57,15.3,15.3,0,0,0-2.48,2.58,30.67,30.67,0,0,0-2.2,3.31,10.91,10.91,0,0,0-1.07,3,6.31,6.31,0,0,0-.14.87l-.26-.15a1.8,1.8,0,0,1-.72-.92,12.1,12.1,0,0,1-.86-3c-.13-1-.26-1.89-.4-2.7a8.24,8.24,0,0,0-.67-2.25,3.39,3.39,0,0,0-1.73-1.62,1.37,1.37,0,0,0-1.44.37,6.17,6.17,0,0,0-1.19,1.44,14.21,14.21,0,0,0-1,2c-.31.74-.6,1.44-.86,2.1l0,.06L40,22.39c0-.92,0-1.84,0-2.77v-.37h-.38a.62.62,0,0,1-.28-.14l-.56-.38a1.15,1.15,0,0,0-.71-.27c-.14,0-.6.06-.6.84.1,1.88.17,4.14.22,6.72s0,5.32-.17,8.19v.13l.08.11c.25.35.52.65.84.65h.14a3.55,3.55,0,0,1,.81,0h.29l.07-.28c0-.13.13-.49.29-1.08s.39-1.29.66-2.1.59-1.7.92-2.64.66-1.78,1-2.56a15.66,15.66,0,0,1,1-1.92,2,2,0,0,1,.6-.65,2.13,2.13,0,0,1,.23.61q.25.91.57,2.22c.21.87.45,1.78.72,2.72a9.67,9.67,0,0,0,1,2.51,3.2,3.2,0,0,0,1.71,1.47,1.65,1.65,0,0,0,.67.08.94.94,0,0,0,0,.16,2.05,2.05,0,0,0,2,1.48,4.86,4.86,0,0,0,2.57-1.13,15,15,0,0,0,2.68-2.79,23.89,23.89,0,0,0,1.47-2.1c0,.29-.05.6-.06.92a13.37,13.37,0,0,0,0,1.79,4.77,4.77,0,0,0,.34,1.63,1.94,1.94,0,0,0,1.56,1.07,3.75,3.75,0,0,0,1.78-.35,6.87,6.87,0,0,0,1.67-1,7.87,7.87,0,0,0,1.16-1.13,3.78,3.78,0,0,0,.48-.69l.54-.94a4.49,4.49,0,0,0,.43-.94.78.78,0,0,0,0-.7Zm-7.34-6.21A13.49,13.49,0,0,1,57.3,26a18.53,18.53,0,0,1-2.11,3.43A12.72,12.72,0,0,1,53,31.66a2.83,2.83,0,0,1-1.19.67,1.8,1.8,0,0,1-.14-1.21,9.1,9.1,0,0,1,.86-2.67,16.1,16.1,0,0,1,2-3.14,13.48,13.48,0,0,1,3.11-2.8,1.36,1.36,0,0,1,.67-.24Z"></path>
                            <path class="cls-1" d="M87.31,22.09l0,0a.47.47,0,0,0,.14-.58c-.09-.19-.27-.25-.66-.35l-.12,0-.12.06a10,10,0,0,0-1.36.76c-.51.33-1,.67-1.54,1l-1.38.94-.48.3c0-.09-.06-.22-.1-.37-.23-1.61-.47-3.33-.71-5.15s-.51-3.64-.77-5.44-.52-3.5-.77-5.13S79,5,78.76,3.83,78.31,1.68,78.13,1s-.33-1-.66-1l-.31,0,0,0a.92.92,0,0,0-.48.22,3.87,3.87,0,0,0-.4.41l-.35.39c-.1.12-.15.14-.16.14l-.32.11.08.33c.16.69.37,1.71.63,3.14s.55,3,.84,4.71.59,3.52.89,5.38.56,3.58.79,5.17.42,3,.57,4.1.2,1.66.21,1.91c-.62.72-1.19,1.4-1.71,2.05a20.66,20.66,0,0,0-1.49,2.08c-.43.7-.83,1.43-1.2,2.18a21,21,0,0,0-1,2.44,15.51,15.51,0,0,0-.86,3.59,12.15,12.15,0,0,0,0,2.78,7.41,7.41,0,0,0,.61,2.08,5.58,5.58,0,0,0,.88,1.38,5.93,5.93,0,0,0,1,1,4.54,4.54,0,0,0,1.29.73,5.14,5.14,0,0,0,1.63.3h.13a6.75,6.75,0,0,0,1.9-.31,9.56,9.56,0,0,0,1-.49,3.74,3.74,0,0,0,1-.79,4.05,4.05,0,0,0,.74-1.27,7.69,7.69,0,0,0,.39-2,15.85,15.85,0,0,0,.07-2c0-.65-.08-1.51-.2-2.54s-.27-2.38-.47-4-.43-3.73-.72-6.35A35.44,35.44,0,0,1,87.31,22.09ZM79.05,44.15a2.21,2.21,0,0,0-.35,0l-.83-.29a2.73,2.73,0,0,1-.83-.46,3.14,3.14,0,0,1-.75-.87A6.42,6.42,0,0,1,75.6,41a14.54,14.54,0,0,1,.22-3.85,15.63,15.63,0,0,1,1.06-3.33,18.59,18.59,0,0,1,1.65-2.92c.46-.68.94-1.35,1.43-2,.2,1.46.42,2.91.65,4.32.28,1.69.5,3.24.66,4.62a25.32,25.32,0,0,1,.22,3.53,2.77,2.77,0,0,1-.42,1.78h0a5,5,0,0,1-.71.66,2.1,2.1,0,0,1-.87.37A.76.76,0,0,1,79.05,44.15Z"></path>
                            <path class="cls-1" d="M111.66,31.81a3.7,3.7,0,0,1-.76-.16,4.13,4.13,0,0,1-1-.45,1.79,1.79,0,0,1-.71-.92,11.1,11.1,0,0,1-.86-3c-.14-1-.27-1.89-.4-2.7a8.87,8.87,0,0,0-.67-2.25,3.43,3.43,0,0,0-1.73-1.62,1.38,1.38,0,0,0-1.45.37,6.19,6.19,0,0,0-1.18,1.44,12.83,12.83,0,0,0-1,2q-.48,1.11-.87,2.1l0,.07.08-4.32c0-.92,0-1.84,0-2.77v-.37h-.37s-.09,0-.29-.14-.38-.25-.55-.38a1.24,1.24,0,0,0-.72-.27c-.14,0-.59.06-.59.84.09,1.9.17,4.16.22,6.72v.66l-.06,0-.08.08a17.81,17.81,0,0,1-1.28,1.48c-.4.4-.95.9-1.64,1.49-.43.39-1,.85-1.66,1.36a9.6,9.6,0,0,1-2,1.21,3.43,3.43,0,0,1-1.87.3,1.47,1.47,0,0,1-1.07-.94,24.65,24.65,0,0,0,3.49-3.08,13,13,0,0,0,2.58-4.35c.47-1.66.4-2.78-.22-3.42A3,3,0,0,0,92.51,20a2.21,2.21,0,0,0-1.3.09l-.91.3A5.82,5.82,0,0,0,88.46,22,13.2,13.2,0,0,0,87,24.43a15.35,15.35,0,0,0-1,4.46,11.16,11.16,0,0,0,.2,2.75,3.69,3.69,0,0,0,.22.67A4.13,4.13,0,0,0,88,34.05a7.66,7.66,0,0,0,1.73.8,7,7,0,0,0,1.18.1,5.16,5.16,0,0,0,1.06-.1,5.29,5.29,0,0,0,1.8-.75,9.81,9.81,0,0,0,1.51-1.2c.46-.45.94-.9,1.46-1.38s.77-.88,1.07-1.17.54-.57.73-.79a2.93,2.93,0,0,0,.28-.36c0,1.62-.08,3.29-.17,5v.13l.08.11c.25.35.52.65.84.65h.13a3.65,3.65,0,0,1,.81,0h.29l.08-.28c0-.13.13-.49.29-1.08s.38-1.29.66-2.1.58-1.7.91-2.64.67-1.78,1-2.56a14.88,14.88,0,0,1,1-1.92,1.87,1.87,0,0,1,.59-.65,2,2,0,0,1,.24.61c.16.61.35,1.35.56,2.22s.46,1.78.72,2.72a10.19,10.19,0,0,0,1.05,2.51,3.24,3.24,0,0,0,1.71,1.47,2.68,2.68,0,0,0,2.47-.7l.22-.36-.09-.19A.62.62,0,0,0,111.66,31.81Zm-20.49-5a10.71,10.71,0,0,1-1.57,1.39c-.32.22-.61.42-.88.59a9.24,9.24,0,0,1,.42-1.95h0a13.11,13.11,0,0,1,1.12-2.57,5.69,5.69,0,0,1,1.44-1.71,1.29,1.29,0,0,1,.81-.32,1.05,1.05,0,0,1,.48.11l0,0s.1.23,0,.81a4.11,4.11,0,0,1-.57,1.9A9.12,9.12,0,0,1,91.17,26.79Zm20.44,5.74h0l0,0v.09Z"></path>
                            <path class="cls-1" d="M150.71,32.1a.63.63,0,0,0-.55-.29,3.91,3.91,0,0,1-.77-.16,4.08,4.08,0,0,1-1-.45,1.79,1.79,0,0,1-.71-.92,11.62,11.62,0,0,1-.87-3q-.19-1.48-.39-2.7a8.6,8.6,0,0,0-.68-2.25A3.39,3.39,0,0,0,144,20.7a1.35,1.35,0,0,0-1.44.37,6,6,0,0,0-1.18,1.44,14.21,14.21,0,0,0-1,2q-.48,1.11-.87,2.1l0,.06.09-4.31c0-.92,0-1.84,0-2.77v-.37h-.37s-.09,0-.29-.14l-.56-.38a1.15,1.15,0,0,0-.71-.27c-.14,0-.6.06-.59.84.09,1.9.17,4.16.22,6.72v.66l-.06,0-.09.08a14.55,14.55,0,0,1-1.27,1.48c-.41.4-1,.9-1.65,1.49-.42.39-1,.85-1.65,1.36a9.6,9.6,0,0,1-2,1.21,3.45,3.45,0,0,1-1.87.3,1.45,1.45,0,0,1-1.07-.94,24.65,24.65,0,0,0,3.49-3.08,12.86,12.86,0,0,0,2.57-4.35c.48-1.66.4-2.78-.21-3.42A3.09,3.09,0,0,0,131,20a2.22,2.22,0,0,0-1.3.09l-.9.3A6.23,6.23,0,0,0,127,22a12.67,12.67,0,0,0-1.43,2.45,20.47,20.47,0,0,0-.73,2.5l-.59.28a12.38,12.38,0,0,0-1.14.6c-.36.22-.76.44-1.22.69l-1.48.8a14.17,14.17,0,0,0-1.89-1c-.81-.36-1.63-.76-2.44-1.2a13.24,13.24,0,0,1-2.19-1.46,4.13,4.13,0,0,1-1.29-1.81,1.33,1.33,0,0,1,.31-1.53,4,4,0,0,1,1.92-1,8.3,8.3,0,0,1,2.71-.16,5.62,5.62,0,0,1,2.46.78c.26.17.54.34.82.5a.83.83,0,0,0,.74.15.45.45,0,0,0,.28-.33l0-.15-.08-.14c-.17-.26-.34-.54-.52-.84a4.32,4.32,0,0,0-.81-.94,4.78,4.78,0,0,0-1.39-.83,8.67,8.67,0,0,0-2.14-.57,6.1,6.1,0,0,0-2.7.18,6.48,6.48,0,0,0-2.26,1.21,5.45,5.45,0,0,0-1.48,1.91,3.8,3.8,0,0,0-.3,2.29,3.53,3.53,0,0,0,1.3,2.21,18.18,18.18,0,0,0,2.5,1.89c.91.58,1.8,1.12,2.66,1.59a9.22,9.22,0,0,1,1.34.87l-1.15,1a11.46,11.46,0,0,0-1.53,1.5,5.14,5.14,0,0,0-1,1.71,2.12,2.12,0,0,0,.33,2,2.8,2.8,0,0,0,1.54.91,3.3,3.3,0,0,0,.8.1,2.6,2.6,0,0,0,.93-.16,9.2,9.2,0,0,0,2.38-1.28A9.1,9.1,0,0,0,122.6,34a2.25,2.25,0,0,0,.26-1.52,4.34,4.34,0,0,0-.47-1.27,4.81,4.81,0,0,0-.66-.88l1.63-1,1.17-.76c0,.11,0,.22,0,.33a10.22,10.22,0,0,0,.2,2.75,3.69,3.69,0,0,0,.22.67,4.48,4.48,0,0,0,.52.84,4.06,4.06,0,0,0,1,.9,7.66,7.66,0,0,0,1.73.8,6,6,0,0,0,2.24,0,5.38,5.38,0,0,0,1.8-.75,10.45,10.45,0,0,0,1.51-1.2c.46-.45.94-.9,1.46-1.38s.77-.88,1.06-1.17.55-.57.74-.79a2.93,2.93,0,0,0,.28-.36c0,1.62-.08,3.29-.17,5v.13l.08.11c.24.35.52.65.83.65h.14a3.65,3.65,0,0,1,.81,0h.29l.07-.28c0-.13.13-.49.3-1.08s.38-1.28.66-2.1.58-1.7.91-2.64.67-1.78,1-2.56a14.24,14.24,0,0,1,1-1.92,1.87,1.87,0,0,1,.59-.65,2.35,2.35,0,0,1,.24.61c.16.61.35,1.35.56,2.22s.46,1.78.72,2.72a10,10,0,0,0,1.05,2.51,3.2,3.2,0,0,0,1.71,1.47,2.68,2.68,0,0,0,2.47-.7l.22-.36Zm-21-5.31a10.71,10.71,0,0,1-1.57,1.39c-.32.22-.61.42-.88.59a9.19,9.19,0,0,1,.41-1.95,13.75,13.75,0,0,1,1.13-2.57,5.82,5.82,0,0,1,1.43-1.71,1.17,1.17,0,0,1,1.3-.21l0,0s.1.23,0,.81a4.11,4.11,0,0,1-.57,1.9A9.12,9.12,0,0,1,129.67,26.79Zm-9.38,6.37v0a2.94,2.94,0,0,1-.55.89,6.28,6.28,0,0,1-1,1,4.48,4.48,0,0,1-1.21.66,1.21,1.21,0,0,1-.89,0c0-.05-.08-.16,0-.43a5.1,5.1,0,0,1,.71-1.14A11,11,0,0,1,118.52,33c.36-.32.69-.6,1-.83a4.89,4.89,0,0,1,.58.55C120.26,32.88,120.33,33,120.29,33.16Zm29.81-.63h0l.06,0v.09Z"></path>
                        </g>
                    </g>
                </svg>